<?xml version="1.0" encoding="utf-8"?>
<svg width="33.480835px" height="33.480835px" viewBox="0 0 33.480835 33.480835" version="1.1" xmlns:xlink="http://www.w3.org/1999/xlink" xmlns="http://www.w3.org/2000/svg">
  <defs>
    <path d="M0 0L33.4808 0L33.4808 33.4808L0 33.4808L0 0Z" id="path_1" />
    <clipPath id="mask_1">
      <use xlink:href="#path_1" />
    </clipPath>
  </defs>
  <g id="Linkedin-icon">
    <path d="M0 0L33.4808 0L33.4808 33.4808L0 33.4808L0 0Z" id="Background" fill="none" fill-rule="evenodd" stroke="none" />
    <g clip-path="url(#mask_1)">
      <path d="M26.5057 27.9006L6.97523 27.9006C6.20518 27.9006 5.5802 27.2757 5.5802 26.5056L5.5802 6.97511C5.5802 6.20505 6.20518 5.58008 6.97523 5.58008L26.5057 5.58008C27.2758 5.58008 27.9008 6.20505 27.9008 6.97511L27.9008 26.5056C27.9008 27.2757 27.2758 27.9006 26.5057 27.9006L26.5057 27.9006Z" id="Shape" fill="#FFFFFF" fill-opacity="0.3" stroke="none" />
      <path d="M12.5554 23.7156L9.03577 23.7156L9.03577 13.9504L12.5554 13.9504L12.5554 23.7156L12.5554 23.7156ZM10.7335 12.1605C9.6579 12.1605 8.93945 11.4435 8.93945 10.4865C8.93945 9.52949 9.6565 8.81244 10.852 8.81244C11.9276 8.81244 12.6461 9.52949 12.6461 10.4865C12.6461 11.4435 11.929 12.1605 10.7335 12.1605L10.7335 12.1605ZM25.1107 23.7156L21.704 23.7156L21.704 18.3782C21.704 16.9023 20.7958 16.5619 20.4555 16.5619C20.1151 16.5619 18.9795 16.7893 18.9795 18.3782C18.9795 18.6056 18.9795 23.7156 18.9795 23.7156L15.4598 23.7156L15.4598 13.9504L18.9795 13.9504L18.9795 15.3133C19.4329 14.5182 20.3411 13.9504 22.0444 13.9504C23.7477 13.9504 25.1107 15.3133 25.1107 18.3782L25.1107 23.7156L25.1107 23.7156Z" id="Shape" fill="#FFFFFF" fill-rule="evenodd" stroke="none" />
      <path d="M26.5056 4.18512L6.97513 4.18512C5.43361 4.18512 4.18506 5.43368 4.18506 6.97519L4.18506 26.5057C4.18506 28.0472 5.43361 29.2957 6.97513 29.2957L26.5056 29.2957C28.0471 29.2957 29.2957 28.0472 29.2957 26.5057L29.2957 6.97519C29.2957 5.43368 28.0471 4.18512 26.5056 4.18512L26.5056 4.18512ZM26.5056 26.5056L6.9751 26.5056L6.9751 6.97516L26.5056 6.97516L26.5056 26.5056L26.5056 26.5056Z" id="Shape" fill="#FFFFFF" fill-rule="evenodd" stroke="none" />
    </g>
  </g>
</svg>