<?xml version="1.0" encoding="utf-8"?>
<svg width="33.480835px" height="33.480835px" viewBox="0 0 33.480835 33.480835" version="1.1" xmlns:xlink="http://www.w3.org/1999/xlink" xmlns="http://www.w3.org/2000/svg">
  <defs>
    <path d="M0 0L33.4808 0L33.4808 33.4808L0 33.4808L0 0Z" id="path_1" />
    <clipPath id="mask_1">
      <use xlink:href="#path_1" />
    </clipPath>
  </defs>
  <g id="Telegram-App-icon">
    <path d="M0 0L33.4808 0L33.4808 33.4808L0 33.4808L0 0Z" id="Background" fill="none" fill-rule="evenodd" stroke="none" />
    <g clip-path="url(#mask_1)">
      <path d="M4.18506 15.3453L29.2957 5.58008L25.1106 27.9006L18.1354 23.7155L13.7759 25.8081L11.1602 19.5304L4.18506 15.3453Z" id="Shape" fill="#FFFFFF" fill-opacity="0.3" stroke="none" />
      <path d="M29.9234 4.71105C29.2468 4.13211 28.2368 4.02469 27.224 4.42507C26.5963 4.67199 16.7599 8.81105 7.59032 12.6711L4.5617 13.9462C3.38847 14.4219 2.79419 15.1933 2.79419 16.2354C2.79419 16.965 3.10389 17.9569 4.57704 18.54L9.69263 20.5865C10.1349 21.9132 11.1616 24.9935 11.4197 25.8123C11.5731 26.2978 11.961 27.5213 12.9403 27.8072C13.1412 27.8756 13.3504 27.9105 13.5639 27.9105C14.1819 27.9105 14.6269 27.6231 14.8445 27.4557L18.0935 24.7075L22.0429 28.3583C22.1949 28.5131 22.9985 29.2957 24.0796 29.2957C25.4286 29.2957 26.4526 28.1727 26.666 27.086C26.7818 26.4903 30.5889 7.37556 30.5889 7.37835C30.9306 5.84521 30.3182 5.05004 29.9234 4.71105L29.9234 4.71105ZM23.9472 26.3187L18.1759 20.9813L13.949 24.5596C13.4482 23.0153 12.134 19.0883 12.134 19.0883L11.9304 18.4759L6.32092 16.2327L8.67435 15.2436C14.6716 12.7186 25.3534 8.22236 27.7752 7.21515C27.2492 9.85176 24.3824 24.2443 23.9472 26.3187L23.9472 26.3187Z" id="Shape" fill="#FFFFFF" fill-rule="evenodd" stroke="none" />
      <path d="M23.4366 11.1603C23.2622 11.1603 23.0265 11.3263 22.9009 11.4044C21.1041 12.5246 12.095 17.6514 9.62439 19.0548C10.3205 19.3338 10.8116 19.5305 10.8116 19.5305C10.8116 19.5305 12.4173 24.3364 12.7507 25.3896C13.0841 26.4443 13.3519 26.4694 13.3519 26.4694C13.4259 26.5015 13.4984 26.514 13.5654 26.514C13.6198 26.514 13.6574 26.4945 13.7035 26.4819L15.3454 20.0536C15.3454 20.0536 22.827 12.4814 23.2776 12.0405C23.6403 11.6876 23.7156 11.5634 23.7156 11.4407C23.7156 11.2775 23.6305 11.1603 23.4366 11.1603L23.4366 11.1603Z" id="Shape" fill="#FFFFFF" stroke="none" />
    </g>
  </g>
</svg>