<?xml version="1.0" encoding="utf-8"?>
<svg width="33.480835px" height="33.480835px" viewBox="0 0 33.480835 33.480835" version="1.1" xmlns:xlink="http://www.w3.org/1999/xlink" xmlns="http://www.w3.org/2000/svg">
  <defs>
    <path d="M0 0L33.4808 0L33.4808 33.4808L0 33.4808L0 0Z" id="path_1" />
    <clipPath id="mask_1">
      <use xlink:href="#path_1" />
    </clipPath>
  </defs>
  <g id="Youtube-icon">
    <path d="M0 0L33.4808 0L33.4808 33.4808L0 33.4808L0 0Z" id="Background" fill="none" fill-rule="evenodd" stroke="none" />
    <g clip-path="url(#mask_1)">
      <path d="M14.4023 13.582C14.0382 13.3365 13.7801 12.9557 13.6267 12.4381C13.4732 11.9205 13.3965 11.2328 13.3965 10.3748L13.3965 9.2044C13.3965 8.33669 13.4844 7.64057 13.6588 7.11464C13.8345 6.58872 14.108 6.20508 14.4804 5.96513C14.8529 5.72379 15.3412 5.60382 15.9466 5.60382C16.5423 5.60382 17.0194 5.72658 17.3793 5.97211C17.7392 6.21764 18.0015 6.60127 18.1675 7.12162C18.3335 7.64336 18.4172 8.33809 18.4172 9.2044L18.4172 10.3748C18.4172 11.2342 18.3363 11.9233 18.1745 12.4451C18.0127 12.9668 17.749 13.3477 17.3863 13.589C17.0236 13.8303 16.5297 13.9503 15.9075 13.9503C15.2686 13.9503 14.7664 13.8275 14.4023 13.582L14.4023 13.582ZM16.4777 12.3209C16.5812 12.0586 16.633 11.629 16.633 11.0333L16.633 8.52222C16.633 7.94328 16.5812 7.52059 16.4777 7.25414C16.3741 6.98629 16.1901 6.85376 15.9283 6.85376C15.6752 6.85376 15.4968 6.98768 15.3933 7.25414C15.2898 7.52198 15.238 7.94468 15.238 8.52222L15.238 11.0333C15.238 11.629 15.2869 12.0586 15.3875 12.3209C15.4868 12.5832 15.668 12.7157 15.9297 12.7157C16.1901 12.7143 16.3741 12.5832 16.4777 12.3209L16.4777 12.3209ZM9.98568 10.2437L7.92242 2.79004L9.72341 2.79004L10.446 6.16881C10.6302 7.00025 10.7655 7.71033 10.8534 8.29764L10.9064 8.29764C10.9678 7.87773 11.1031 7.17184 11.3138 6.18137L12.0629 2.79004L13.8639 2.79004L11.7741 10.2437L11.7741 13.8192L9.98568 13.8192L9.98568 10.2437L9.98568 10.2437ZM24.275 5.76147L24.275 13.8192L22.8549 13.8192L22.6972 12.8329L22.6581 12.8329C22.2731 13.5779 21.6942 13.9503 20.9241 13.9503C20.3898 13.9503 19.995 13.7746 19.7411 13.4244C19.4872 13.0742 19.3603 12.526 19.3603 11.781L19.3603 5.76147L21.1738 5.76147L21.1738 11.6764C21.1738 12.0363 21.2129 12.2916 21.2924 12.4451C21.3719 12.5985 21.5031 12.6753 21.6872 12.6753C21.8448 12.6753 21.9955 12.6278 22.1406 12.5302C22.2857 12.4339 22.3931 12.3112 22.4628 12.1619L22.4628 5.76147L24.275 5.76147L24.275 5.76147Z" id="Shape" fill="#FFFFFF" fill-rule="evenodd" stroke="none" />
      <g id="Group" transform="translate(4.1851196 15.345398)">
        <path d="M20.2199 6.68504C20.1226 6.59297 19.9732 6.54694 19.7699 6.54694C19.5667 6.54694 19.4173 6.59576 19.32 6.69062C19.2227 6.78688 19.1584 6.94452 19.1271 7.16215C19.0941 7.37977 19.0785 7.71179 19.0785 8.15541L19.0785 8.64367L20.4735 8.64367L20.4735 8.15541C20.4735 7.71876 20.4544 7.38814 20.4179 7.16215C20.3832 6.93615 20.3172 6.77712 20.2199 6.68504L20.2199 6.68504ZM15.2439 6.77992C15.1501 6.65855 15.0178 6.59717 14.8456 6.59717C14.6825 6.59717 14.5318 6.65576 14.3934 6.77434C14.255 6.89292 14.1565 7.04497 14.0996 7.22912L14.0996 11.0906C14.1734 11.2092 14.2688 11.297 14.3872 11.357C14.5057 11.4156 14.6333 11.4463 14.7733 11.4463C14.9532 11.4463 15.0947 11.3877 15.2009 11.2691C15.307 11.1506 15.3824 10.9511 15.427 10.6693C15.4716 10.3889 15.4946 9.99965 15.4946 9.50442L15.4946 8.62833C15.4946 8.09543 15.4762 7.68529 15.4393 7.39652C15.4024 7.10775 15.3362 6.90128 15.2439 6.77992L15.2439 6.77992Z" id="Shape" fill="#FFFFFF" fill-rule="evenodd" stroke="none" />
        <path d="M22.3206 0L2.79007 0C1.25553 0 0 1.25553 0 2.79007L0 12.5553C0 14.0898 1.25553 15.3454 2.79007 15.3454L22.3206 15.3454C23.8551 15.3454 25.1106 14.0898 25.1106 12.5553L25.1106 2.79007C25.1106 1.25553 23.8551 0 22.3206 0L22.3206 0ZM6.48548 12.4438L4.98861 12.4438L4.98861 4.36652L3.46802 4.36652L3.46802 3.1347L8.00606 3.1347L8.00606 4.36652L6.48548 4.36652L6.48548 12.4438L6.48548 12.4438ZM11.7001 12.4437L10.5017 12.4437L10.3692 11.6109L10.3357 11.6109C10.0093 12.2414 9.52104 12.5553 8.86956 12.5553C8.41757 12.5553 8.08555 12.4075 7.87071 12.1117C7.65588 11.816 7.54846 11.3528 7.54846 10.725L7.54846 5.64293L9.0816 5.64293L9.0816 10.6372C9.0816 10.9399 9.11509 11.1575 9.18205 11.2858C9.24901 11.4156 9.35922 11.4798 9.51546 11.4798C9.64799 11.4798 9.77633 11.4393 9.8977 11.357C10.0205 11.2761 10.1097 11.1715 10.1697 11.0459L10.1697 5.64154L11.7015 5.64154L11.7015 12.4437L11.7001 12.4437ZM16.9064 9.59223C16.9064 10.6064 16.7836 11.3514 16.5395 11.8285C16.2954 12.3056 15.9145 12.5441 15.397 12.5441C15.1082 12.5441 14.8459 12.4772 14.6088 12.3446C14.3716 12.2121 14.1945 12.0307 14.0759 11.8006L14.0424 11.8006L13.8875 12.4437L12.6223 12.4437L12.6223 2.79004L14.0982 2.79004L14.0982 6.37388L14.1094 6.37388C14.2419 6.11441 14.4316 5.90655 14.6757 5.74751C14.9199 5.58848 15.1821 5.50896 15.4639 5.50896C15.8266 5.50896 16.1112 5.60522 16.3177 5.79773C16.5242 5.99025 16.6748 6.30134 16.7669 6.72962C16.859 7.15929 16.905 7.75497 16.905 8.51665L16.905 9.59223L16.9064 9.59223ZM21.6426 9.55314L19.0799 9.55314L19.0799 9.89771C19.0799 10.3344 19.0925 10.6622 19.119 10.8798C19.1455 11.0974 19.1985 11.2579 19.2794 11.3569C19.3603 11.4574 19.4859 11.5062 19.6561 11.5062C19.8849 11.5062 20.0425 11.4169 20.1276 11.2397C20.2127 11.0626 20.2587 10.7668 20.2657 10.3525L21.5868 10.4306C21.5938 10.4892 21.598 10.5715 21.598 10.6747C21.598 11.3039 21.4264 11.774 21.0818 12.0837C20.7372 12.3948 20.2518 12.5497 19.6226 12.5497C18.8679 12.5497 18.3392 12.3125 18.035 11.8396C17.7309 11.3667 17.5803 10.6343 17.5803 9.64242L17.5803 8.45385C17.5803 7.43269 17.7379 6.68774 18.0518 6.21762C18.3657 5.74749 18.9041 5.51312 19.6658 5.51312C20.1904 5.51312 20.5935 5.60938 20.8753 5.80189C21.1557 5.99441 21.3538 6.29434 21.4696 6.7003C21.584 7.10765 21.6412 7.66984 21.6412 8.38689L21.6412 9.55314L21.6426 9.55314Z" id="Shape" fill="#FFFFFF" fill-rule="evenodd" stroke="none" />
      </g>
    </g>
  </g>
</svg>